<?xml version="1.0" ?>
<svg xmlns="http://www.w3.org/2000/svg" version="1.1" width="448" height="448">
  <defs/>
  <g>
    <path d="M 265.7168273925781 214.29296875 C 171.4288787841797 219.0330352783203 211.7870330810547 204.56008911132812 197.97525024414062 239.77821350097656 C 179.68617248535156 222.51388549804688 202.4148712158203 218.0683135986328 179.76596069335938 211.87680053710938 C 177.85833740234375 162.9417724609375 174.6033935546875 176.2667236328125 229.14268493652344 173.2912139892578 C 244.4459686279297 162.9387664794922 246.35459899902344 161.319091796875 265.7168273925781 214.29296875 Z" stroke-width="0.0" fill="rgb(0, 52, 66)" opacity="0.9656852"/>
    <path d="M 327.41943359375 332.39495849609375 C 323.3053894042969 369.4576416015625 316.3216247558594 372.97320556640625 287.3786926269531 362.31024169921875 C 303.09649658203125 304.869873046875 328.08868408203125 317.78021240234375 299.12945556640625 272.86932373046875 C 267.8399658203125 231.6432647705078 237.91610717773438 246.69595336914062 248.9152069091797 226.5724639892578 C 312.7796325683594 245.99118041992188 329.23236083984375 300.1519470214844 327.41943359375 332.39495849609375 Z" stroke-width="0.0" fill="rgb(0, 54, 68)" opacity="0.9756063"/>
    <path d="M 267.8133850097656 211.2724609375 C 246.9535369873047 219.78558349609375 267.4599914550781 215.8136749267578 251.61929321289062 241.58670043945312 C 236.8404083251953 221.4866180419922 263.91400146484375 203.00985717773438 219.63360595703125 174.5319366455078 C 178.07423400878906 120.72222137451172 248.91683959960938 69.39018249511719 325.8538818359375 135.27947998046875 C 190.73992919921875 200.2728271484375 283.0982666015625 130.3278045654297 267.8133850097656 211.2724609375 Z" stroke-width="0.0" fill="rgb(0, 99, 89)" opacity="0.665461"/>
    <path d="M 186.22743225097656 242.69480895996094 C 142.53968811035156 264.21942138671875 138.68243408203125 293.3467712402344 131.35708618164062 310.7718200683594 C 120.63412475585938 312.0710144042969 121.0721664428711 307.2778015136719 128.83155822753906 286.7179260253906 C 130.8270721435547 282.9691162109375 143.14292907714844 250.08892822265625 182.3100128173828 233.046875 C 203.10055541992188 222.98605346679688 210.2364959716797 238.1643524169922 186.22743225097656 242.69480895996094 Z" stroke-width="0.0" fill="rgb(0, 54, 68)" opacity="0.97439086"/>
    <path d="M 259.6474914550781 342.8140563964844 C 255.56533813476562 400.6191101074219 271.5013122558594 417.6512756347656 181.7127227783203 416.3626403808594 C 166.96243286132812 374.4173583984375 167.1710205078125 369.5321350097656 167.53321838378906 289.2827453613281 C 171.49388122558594 291.886474609375 188.0129852294922 284.7585144042969 225.0517578125 297.585693359375 C 279.5875549316406 323.243408203125 286.984619140625 286.8515930175781 259.6474914550781 342.8140563964844 Z" stroke-width="0.0" fill="rgb(231, 48, 11)" opacity="0.8183373"/>
    <path d="M 188.37197875976562 356.6981506347656 C 189.7436065673828 391.1737365722656 197.3336639404297 402.61651611328125 215.82241821289062 428.9458923339844 C 161.74591064453125 422.7176513671875 135.95559692382812 385.3760681152344 127.68962097167969 363.9092102050781 C 111.89750671386719 324.47320556640625 127.55754089355469 294.3123474121094 122.68436431884766 305.5269775390625 C 163.41357421875 308.5505676269531 179.17185974121094 300.7691345214844 188.37197875976562 356.6981506347656 Z" stroke-width="0.0" fill="rgb(0, 53, 66)" opacity="0.97270226"/>
    <path d="M 190.23756408691406 316.5711975097656 C 190.0653533935547 342.63458251953125 180.56088256835938 331.65045166015625 162.5736083984375 323.4983825683594 C 125.6653060913086 316.67095947265625 129.83673095703125 317.48394775390625 129.6101531982422 323.18408203125 C 132.2667236328125 297.9743957519531 143.086669921875 294.15087890625 129.52381896972656 297.7350158691406 C 167.8129119873047 290.34259033203125 175.03741455078125 280.7296142578125 190.23756408691406 316.5711975097656 Z" stroke-width="0.0" fill="rgb(229, 47, 7)" opacity="0.78797805"/>
    <path d="M 324.3702392578125 348.8506774902344 C 323.3677978515625 359.6509094238281 309.7832336425781 404.138427734375 255.9648895263672 424.06982421875 C 192.58871459960938 440.1531982421875 201.6736602783203 416.8807067871094 226.91017150878906 391.28955078125 C 260.975830078125 318.68951416015625 284.9991149902344 312.0850524902344 271.9693908691406 308.5129089355469 C 329.8639221191406 310.84283447265625 305.29608154296875 267.7669372558594 324.3702392578125 348.8506774902344 Z" stroke-width="0.0" fill="rgb(36, 43, 48)" opacity="0.89427495"/>
    <path d="M 288.2864990234375 125.32350158691406 C 291.7372741699219 153.63011169433594 267.0916442871094 121.55274200439453 245.42457580566406 136.65814208984375 C 224.36627197265625 147.46615600585938 233.92991638183594 185.9374542236328 227.47882080078125 154.76487731933594 C 232.33071899414062 122.27416229248047 252.5114288330078 124.27352142333984 281.27813720703125 103.54759216308594 C 296.4795227050781 104.0062255859375 254.1292724609375 132.9267578125 288.2864990234375 125.32350158691406 Z" stroke-width="0.0" fill="rgb(255, 255, 255)" opacity="0.9730654"/>
    <path d="M 248.65328979492188 64.97237396240234 C 247.0693817138672 77.49298858642578 240.0113067626953 77.45384979248047 225.67523193359375 74.90019989013672 C 213.56349182128906 68.09114074707031 214.4874267578125 64.70555114746094 212.44822692871094 58.99132537841797 C 213.4050750732422 46.922393798828125 217.37039184570312 42.9901237487793 222.1114044189453 35.1671142578125 C 237.3799591064453 28.03870964050293 226.2711944580078 75.5888442993164 248.65328979492188 64.97237396240234 Z" stroke-width="0.0" fill="rgb(44, 139, 125)" opacity="0.9155448"/>
    <path d="M 251.1059112548828 53.4808464050293 C 274.62420654296875 63.168827056884766 251.02862548828125 87.30374145507812 237.68829345703125 83.30973815917969 C 220.50758361816406 83.60160064697266 211.7050018310547 65.74495697021484 211.5560302734375 60.20580291748047 C 212.47247314453125 48.95521926879883 212.74993896484375 49.25997543334961 227.87667846679688 63.66109848022461 C 243.28330993652344 94.80132293701172 251.6979217529297 58.38457489013672 251.1059112548828 53.4808464050293 Z" stroke-width="0.0" fill="rgb(28, 130, 115)" opacity="0.8430282"/>
    <path d="M 242.07618713378906 23.019304275512695 C 231.8008270263672 59.95670700073242 233.984375 67.19013977050781 235.3430938720703 81.68865966796875 C 210.6019744873047 68.33219146728516 208.9805145263672 60.79735565185547 212.17581176757812 46.016788482666016 C 212.8280029296875 46.01528549194336 216.0369415283203 27.813556671142578 236.8877716064453 20.183456420898438 C 249.5270538330078 16.40717124938965 248.81004333496094 19.609447479248047 242.07618713378906 23.019304275512695 Z" stroke-width="0.0" fill="rgb(58, 146, 134)" opacity="0.9423536"/>
    <path d="M 278.0035400390625 24.99168586730957 C 274.4495544433594 51.9918212890625 261.9488830566406 32.298187255859375 241.00242614746094 43.30388259887695 C 229.64735412597656 56.413448333740234 229.4422149658203 57.2755241394043 224.52711486816406 33.0494499206543 C 229.4520721435547 22.915987014770508 237.1200714111328 21.624357223510742 247.0441131591797 17.959074020385742 C 265.3380126953125 16.284175872802734 273.6349792480469 22.791051864624023 278.0035400390625 24.99168586730957 Z" stroke-width="0.0" fill="rgb(55, 145, 131)" opacity="0.9613103"/>
    <path d="M 298.05072021484375 76.5197525024414 C 290.87664794921875 104.24378204345703 270.0909118652344 109.728759765625 258.8411865234375 115.78887939453125 C 218.26087951660156 142.89373779296875 202.89126586914062 156.25172424316406 225.3252716064453 110.65093231201172 C 256.33294677734375 88.28221130371094 271.6935119628906 89.49681091308594 279.9695129394531 60.763465881347656 C 301.9533996582031 62.316524505615234 299.9891052246094 60.40732192993164 298.05072021484375 76.5197525024414 Z" stroke-width="0.0" fill="rgb(58, 146, 133)" opacity="0.9786178"/>
    <path d="M 285.28765869140625 32.646907806396484 C 281.66998291015625 47.79673385620117 278.91424560546875 49.36695861816406 270.4408264160156 51.23402404785156 C 260.9209899902344 36.72170639038086 249.59201049804688 40.26032638549805 242.02622985839844 41.70506286621094 C 274.85052490234375 30.086130142211914 255.0227813720703 15.035517692565918 276.5511169433594 24.785770416259766 C 271.3007507324219 25.69237518310547 274.8499450683594 27.67353057861328 285.28765869140625 32.646907806396484 Z" stroke-width="0.0" fill="rgb(57, 148, 135)" opacity="0.8349266"/>
    <path d="M 298.97308349609375 62.76637268066406 C 293.25665283203125 78.46769714355469 303.15966796875 83.05270385742188 265.2091064453125 84.82557678222656 C 284.24627685546875 64.4253158569336 270.80242919921875 45.45762634277344 256.8013610839844 39.34663391113281 C 261.0138244628906 23.900678634643555 260.4015808105469 19.7810001373291 278.9673156738281 25.510427474975586 C 284.15032958984375 28.87663459777832 297.3127746582031 40.617881774902344 298.97308349609375 62.76637268066406 Z" stroke-width="0.0" fill="rgb(57, 146, 133)" opacity="0.9681522"/>
  </g>
</svg>
