<svg width="512" height="512" viewBox="0 0 512 512" xmlns="http://www.w3.org/2000/svg">
  <!-- Smoke/Vapor -->
  <path d="M245 200c-10-30-50-30-60-60-5-15 5-35 25-35 15 0 25 15 20 30-2 10-10 15-15 10s-5-10 0-15c2-2 5-2 5 0s-2 5-5 5c-5 0-10-10-5-20 5-10 15-10 20-5 5 10-5 25-15 35-10 10-15 30-5 55z" fill="#4da18f" />
  <path d="M265 200c5-40 40-50 60-80 20-30 10-70-30-85-40-15-80 10-85 50-5 30 20 50 45 45 15-3 25-15 20-30-5-15-20-20-35-15-10 5-15 15-10 25 3 5 10 5 15 0 5-5 0-15-10-15-5 0-10 5-10 10 0 10 15 20 30 15 15-5 20-20 15-35-10-25-50-25-60 0-10 30 20 50 40 80 15 25 10 60 10 75z" fill="#4da18f" />
  <path d="M275 200c10-20 40-20 60-30 20-10 30-30 20-50-10-20-35-20-50-10-10 10-10 25 0 30 10 5 20-5 20-15 0-5-5-10-10-10s-10 5-10 10c0 10 15 15 25 5 5-5 5-15 0-20-10-10-25-5-30 5-10 15-10 35-25 45-15 10-25 25-25 45z" fill="#4da18f" />

  <!-- Flask Outline -->
  <path d="M256 245c-10 0-12 10-12 25 0 5-5 10-10 10-55 0-100 45-100 100s45 100 100 100 100-45 100-100c0-55-45-100-100-100-5 0-10-5-10-10 0-15-2-25-12-25z" fill="#00303b" />
  <rect x="205" y="198" width="102" height="45" rx="8" fill="#00303b" />

  <!-- Flask Interior -->
  <path d="M256 257c-5 0-6 5-6 15 0 8-8 15-16 15-48 0-88 40-88 88s40 88 88 88 88-40 88-88c0-48-40-88-88-88-8 0-16-7-16-15 0-10-1-15-6-15z" fill="#fdf5e6" />
  
  <!-- Cork -->
  <rect x="216" y="209" width="80" height="23" rx="2" fill="#965a3e" />

  <!-- Liquid -->
  <path d="M168 375c0 48 40 88 88 88s88-40 88-88c0-5-2-10-5-15-20 15-50 15-75 5-20-8-45-10-70 5-15 10-26 5-26 5z" fill="#f05433" />
  
  <!-- Liquid Shadow -->
  <path d="M344 375c0 48-40 88-88 88 35 0 70-30 83-73 5-15 5-15 5-15z" fill="#d14124" opacity="0.3" />

  <!-- Bubbles -->
  <circle cx="273" cy="310" r="12" fill="#d14124" />
  <circle cx="205" cy="375" r="12" fill="#f9b07a" />
  <circle cx="228" cy="412" r="7" fill="#f9b07a" />
</svg>