<svg xmlns="http://www.w3.org/2000/svg" width="128" height="128" viewBox="0 0 128 128"><path fill="#f2e1d6" d="M108.8 84.48c0 5.12-1.28 10.24-5.12 10.24l-32-2.56c-1.28 0-2.56 0-3.84 1.28l-3.84 5.12c-1.28 1.28-2.56 1.28-3.84 0l-3.84-5.12c-1.28-1.28-2.56-1.28-3.84-1.28l-32 2.56c-3.84 0-5.12-5.12-5.12-10.24s1.28-10.24 5.12-10.24l32 2.56c1.28 0 2.56 0 3.84 1.28l3.84 5.12c1.28 1.28 2.56 1.28 3.84 0l3.84-5.12c1.28-1.28 2.56-1.28 3.84-1.28l32-2.56c3.84 0 5.12 5.12 5.12 10.24"/><path fill="#e6d6c9" d="M27.9 84.48c0 5.12-1.28 10.24-3.84 10.24s-5.12-5.12-5.12-10.24 2.56-10.24 5.12-10.24c2.56 0 3.84 5.12 3.84 10.24"/><path fill="#21333a" d="M108.8 48.64c0 1.28 0 1.28-1.28 1.28l-7.68 2.56v8.96l2.56 6.4c0 1.28 0 2.56-1.28 2.56h-6.4c-1.28 0-2.56-1.28-1.28-2.56l2.56-6.4v-8.96l-10.24 3.84v19.2l8.96-.64v1.28l-8.96.64v1.28c0 5.12-5.12 5.12-10.24 6.4-1.28 0-1.28 0-1.28 1.28s1.28 1.28 1.28 1.28c2.56 0 6.4 7.68 6.4 7.68 0 1.28 0 1.28-1.28 1.28s-3.84-1.28-5.12 0-1.28 3.84-2.56 3.84-1.28-1.28-2.56-3.84l-3.84-12.8c0-1.28 0-1.28 1.28-1.28s1.28-1.28 1.28-1.28V76.8c0-1.28 0-1.28-1.28-1.28h-7.68c-1.28 0-1.28 0-1.28 1.28v2.56c0 1.28 0 1.28 1.28 1.28s1.28 1.28 1.28 1.28l-3.84 12.8c-1.28 2.56-1.28 3.84-2.56 3.84s-1.28-1.28-2.56-3.84-3.84-1.28-5.12 0-1.28 0-1.28-1.28 3.84-7.68 6.4-7.68c1.28 0 1.28 0 1.28-1.28s0-1.28-1.28-1.28c-5.12-1.28-10.24-1.28-10.24-6.4v-1.28l-8.96-.64v-1.28l8.96.64v-19.2l-10.24-3.84v8.96l2.56 6.4c0 1.28 0 2.56-1.28 2.56h-6.4c-1.28 0-2.56-1.28-1.28-2.56l2.56-6.4v-8.96l-7.68-2.56c-1.28 0-1.28 0-1.28-1.28s0-1.28 1.28-1.28l43.52-16.64c1.28 0 1.28 0 1.28 1.28l43.52 16.64c1.28 0 1.28 0 1.28 1.28"/><path fill="#d34a40" d="M81.92 76.8c0 5.12-5.12 5.12-10.24 6.4-1.28 0-1.28 0-1.28 1.28s1.28 1.28 1.28 1.28c2.56 0 6.4 7.68 6.4 7.68 0 1.28 0 1.28-1.28 1.28s-3.84-1.28-5.12 0-1.28 3.84-2.56 3.84-1.28-1.28-2.56-3.84l-3.84-12.8c0-1.28 0-1.28 1.28-1.28s1.28-1.28 1.28-1.28V76.8c0-1.28 0-1.28-1.28-1.28h-7.68c-1.28 0-1.28 0-1.28 1.28v2.56c0 1.28 0 1.28 1.28 1.28s1.28 1.28 1.28 1.28l-3.84 12.8c-1.28 2.56-1.28 3.84-2.56 3.84s-1.28-1.28-2.56-3.84-3.84-1.28-5.12 0-1.28 0-1.28-1.28 3.84-7.68 6.4-7.68c1.28 0 1.28 0 1.28-1.28s0-1.28-1.28-1.28c-5.12-1.28-10.24-1.28-10.24-6.4 0-5.12 5.12-6.4 10.24-3.84 1.28 0 1.28 1.28 2.56 1.28l5.12 3.84c1.28 0 1.28 1.28 2.56 1.28h7.68c1.28 0 1.28 0 2.56-1.28l5.12-3.84c1.28 0 1.28-1.28 2.56-1.28 5.12-2.56 10.24-1.28 10.24 3.84"/></svg>